<svg width="1em" height="1em" viewBox="0 0 20 20" fill="none" xmlns="http://www.w3.org/2000/svg">
<g id="Icon/Alarm" opacity="0.6">
<path id="Icon" d="M7.01062 17.6458C7.74552 18.4762 8.82073 19 10.0186 19C11.2165 19 12.2917 18.4762 13.0266 17.6458M16.0319 10.1809V7.00003C16.0319 3.67773 13.3497 1 10.0186 1C6.68749 1 3.96893 3.56357 3.96893 7.00003V10.1593C3.96893 10.6425 3.89343 11.1225 3.74532 11.5809L3.00489 13.8724C2.98462 13.9351 3.02989 13.9999 3.094 13.9999H16.9C16.9678 13.9999 17.0159 13.9341 16.9951 13.8697L16.2497 11.5626C16.1054 11.1162 16.0319 10.6499 16.0319 10.1809Z" stroke="currentColor" stroke-width="2" stroke-linecap="round"/>
</g>
</svg>
