<svg width="14" height="14" viewBox="0 0 14 14" fill="none" xmlns="http://www.w3.org/2000/svg">
<g id="check-circle-broken" clip-path="url(#clip0_675_26910)">
<path id="Icon" d="M12.8334 6.46651V7.00318C12.8327 8.26109 12.4254 9.48507 11.6722 10.4926C10.919 11.5001 9.86033 12.2371 8.65404 12.5938C7.44775 12.9504 6.15848 12.9076 4.97852 12.4717C3.79856 12.0357 2.79113 11.2301 2.10647 10.1748C1.42182 9.11953 1.09663 7.87121 1.17939 6.61603C1.26216 5.36084 1.74845 4.16603 2.56574 3.2098C3.38304 2.25357 4.48754 1.58715 5.71452 1.30993C6.94151 1.03271 8.22524 1.15954 9.37425 1.67151M12.8334 2.33317L7.00008 8.17234L5.25008 6.42234" stroke="#9897A1" stroke-width="1.4" stroke-linecap="round" stroke-linejoin="round"/>
</g>
<defs>
<clipPath id="clip0_675_26910">
<rect width="14" height="14" fill="white"/>
</clipPath>
</defs>
</svg>
