<svg width="30" height="30" viewBox="0 0 30 30" fill="none" xmlns="http://www.w3.org/2000/svg">
<circle cx="15" cy="15" r="15" fill="white" fill-opacity="0.15"/>
<path d="M19.7507 12.2222L20.4074 12.0033C21.5924 11.6083 22.1849 11.4108 22.6566 11.5292C23.0694 11.6329 23.4269 11.8906 23.6558 12.2495C23.9173 12.6594 23.9173 13.284 23.9173 14.5331V15.4669C23.9173 16.716 23.9173 17.3406 23.6558 17.7505C23.4269 18.1094 23.0694 18.3671 22.6566 18.4708C22.1849 18.5892 21.5924 18.3917 20.4074 17.9967L19.7507 17.7778M10.7507 20H17.084C18.0174 20 18.4841 20 18.8406 19.8183C19.1542 19.6586 19.4092 19.4036 19.569 19.09C19.7507 18.7335 19.7507 18.2668 19.7507 17.3333V12.6667C19.7507 11.7332 19.7507 11.2665 19.569 10.91C19.4092 10.5964 19.1542 10.3414 18.8406 10.1817C18.4841 10 18.0174 10 17.084 10H10.7507C9.81723 10 9.35052 10 8.994 10.1817C8.6804 10.3414 8.42543 10.5964 8.26564 10.91C8.08398 11.2665 8.08398 11.7332 8.08398 12.6667V17.3333C8.08398 18.2668 8.08398 18.7335 8.26564 19.09C8.42543 19.4036 8.6804 19.6586 8.994 19.8183C9.35052 20 9.81723 20 10.7507 20Z" stroke="#C7C8D3" stroke-width="1.4" stroke-linecap="round"/>
</svg>
