<svg width="26" height="26" viewBox="0 0 26 26" fill="none" xmlns="http://www.w3.org/2000/svg">
<g id="CancelRounded">
<path id="Vector" d="M12.9998 2.16666C7.009 2.16666 2.1665 7.00916 2.1665 13C2.1665 18.9908 7.009 23.8333 12.9998 23.8333C18.9907 23.8333 23.8332 18.9908 23.8332 13C23.8332 7.00916 18.9907 2.16666 12.9998 2.16666ZM17.6582 17.6583C17.2357 18.0808 16.5532 18.0808 16.1307 17.6583L12.9998 14.5275L9.869 17.6583C9.4465 18.0808 8.764 18.0808 8.3415 17.6583C7.919 17.2358 7.919 16.5533 8.3415 16.1308L11.4723 13L8.3415 9.86916C7.919 9.44666 7.919 8.76416 8.3415 8.34166C8.764 7.91916 9.4465 7.91916 9.869 8.34166L12.9998 11.4725L16.1307 8.34166C16.5532 7.91916 17.2357 7.91916 17.6582 8.34166C18.0807 8.76416 18.0807 9.44666 17.6582 9.86916L14.5273 13L17.6582 16.1308C18.0698 16.5425 18.0698 17.2358 17.6582 17.6583Z" fill="#9897A1"/>
</g>
</svg>
