<svg width="30" height="30" viewBox="0 0 30 30" fill="none" xmlns="http://www.w3.org/2000/svg">
<circle cx="15" cy="15" r="15" fill="white" fill-opacity="0.15"/>
<path d="M9.88803 21.423L10.2058 20.7993H10.2058L9.88803 21.423ZM8.57698 20.112L7.95328 20.4298H7.95328L8.57698 20.112ZM20.112 8.57698L20.4298 7.95328V7.95328L20.112 8.57698ZM21.423 9.88803L20.7993 10.2058V10.2058L21.423 9.88803ZM9.88803 8.57698L10.2058 9.20069L10.2058 9.20068L9.88803 8.57698ZM8.57698 9.88803L9.20068 10.2058L9.20069 10.2058L8.57698 9.88803ZM21.05 14.25C21.05 14.6366 21.3634 14.95 21.75 14.95C22.1366 14.95 22.45 14.6366 22.45 14.25H21.05ZM14.25 22.45C14.6366 22.45 14.95 22.1366 14.95 21.75C14.95 21.3634 14.6366 21.05 14.25 21.05V22.45ZM12 11.3C11.6134 11.3 11.3 11.6134 11.3 12C11.3 12.3866 11.6134 12.7 12 12.7V11.3ZM18 12.7C18.3866 12.7 18.7 12.3866 18.7 12C18.7 11.6134 18.3866 11.3 18 11.3V12.7ZM12 14.3C11.6134 14.3 11.3 14.6134 11.3 15C11.3 15.3866 11.6134 15.7 12 15.7V14.3ZM18 15.7C18.3866 15.7 18.7 15.3866 18.7 15C18.7 14.6134 18.3866 14.3 18 14.3V15.7ZM12 17.3C11.6134 17.3 11.3 17.6134 11.3 18C11.3 18.3866 11.6134 18.7 12 18.7V17.3ZM15 18.7C15.3866 18.7 15.7 18.3866 15.7 18C15.7 17.6134 15.3866 17.3 15 17.3V18.7ZM16.6899 22.1224L17.354 22.3438L17.354 22.3438L16.6899 22.1224ZM17.037 21.0812L16.3729 20.8598L16.3729 20.8598L17.037 21.0812ZM17.3952 20.5017L17.8901 20.9966L17.8901 20.9966L17.3952 20.5017ZM20.854 17.0428L20.3591 16.5478L20.3591 16.5478L20.854 17.0428ZM22.7072 18.896L23.2022 19.3909L22.7072 18.896ZM19.2483 22.3548L18.7534 21.8599V21.8599L19.2483 22.3548ZM18.6688 22.713L18.8902 23.3771L18.8902 23.3771L18.6688 22.713ZM17.6276 23.0601L17.8489 23.7242H17.8489L17.6276 23.0601ZM19.0584 22.5322L19.4799 23.091H19.4799L19.0584 22.5322ZM18.9124 22.6224L18.6011 21.9954L18.6011 21.9954L18.9124 22.6224ZM22.7072 17.0428L22.2122 17.5378L22.7072 17.0428ZM23.1537 17.558L23.7809 17.2471L23.1537 17.558ZM23.1537 18.3808L23.7809 18.6916L23.1537 18.3808ZM21.3692 16.5963L21.68 17.2236L21.3692 16.5963ZM22.192 16.5963L21.8812 17.2236H21.8812L22.192 16.5963ZM17.1276 20.8376L17.7546 21.1489V21.1489L17.1276 20.8376ZM17.2178 20.6916L16.659 20.2701L17.2178 20.6916ZM16.5173 22.952L17.1766 22.7169L16.5173 22.952ZM16.798 23.2328L16.5629 23.8921L16.798 23.2328ZM13.05 8.95H16.95V7.55H13.05V8.95ZM8.95 16.95V13.05H7.55V16.95H8.95ZM13.05 21.05C12.1984 21.05 11.6017 21.0495 11.1366 21.0115C10.6796 20.9741 10.4116 20.9041 10.2058 20.7993L9.57023 22.0467C10.0062 22.2689 10.4791 22.3624 11.0226 22.4068C11.558 22.4505 12.2215 22.45 13.05 22.45V21.05ZM7.55 16.95C7.55 17.7785 7.54946 18.442 7.5932 18.9774C7.63761 19.5209 7.73113 19.9938 7.95328 20.4298L9.20069 19.7942C9.09586 19.5884 9.02588 19.3204 8.98855 18.8634C8.95054 18.3983 8.95 17.8016 8.95 16.95H7.55ZM10.2058 20.7993C9.77305 20.5788 9.42119 20.227 9.20068 19.7942L7.95328 20.4298C8.30801 21.126 8.87404 21.692 9.57024 22.0467L10.2058 20.7993ZM16.95 8.95C17.8016 8.95 18.3983 8.95054 18.8634 8.98855C19.3204 9.02588 19.5884 9.09586 19.7942 9.20069L20.4298 7.95328C19.9938 7.73113 19.5209 7.63761 18.9774 7.5932C18.442 7.54946 17.7785 7.55 16.95 7.55V8.95ZM22.45 13.05C22.45 12.2215 22.4505 11.558 22.4068 11.0226C22.3624 10.4791 22.2689 10.0062 22.0467 9.57023L20.7993 10.2058C20.9041 10.4116 20.9741 10.6796 21.0115 11.1366C21.0495 11.6017 21.05 12.1984 21.05 13.05H22.45ZM19.7942 9.20068C20.227 9.42119 20.5788 9.77305 20.7993 10.2058L22.0467 9.57024C21.692 8.87404 21.126 8.30801 20.4298 7.95328L19.7942 9.20068ZM13.05 7.55C12.2215 7.55 11.558 7.54946 11.0226 7.5932C10.4791 7.63761 10.0062 7.73113 9.57024 7.95328L10.2058 9.20068C10.4116 9.09586 10.6796 9.02588 11.1366 8.98855C11.6017 8.95054 12.1984 8.95 13.05 8.95V7.55ZM8.95 13.05C8.95 12.1984 8.95054 11.6017 8.98855 11.1366C9.02588 10.6796 9.09586 10.4116 9.20068 10.2058L7.95328 9.57024C7.73113 10.0062 7.63761 10.4791 7.5932 11.0226C7.54946 11.558 7.55 12.2215 7.55 13.05H8.95ZM9.57024 7.95328C8.87404 8.30801 8.30801 8.87404 7.95328 9.57024L9.20069 10.2058C9.42119 9.77305 9.77305 9.42119 10.2058 9.20069L9.57024 7.95328ZM21.05 13.05V14.25H22.45V13.05H21.05ZM13.05 22.45H14.25V21.05H13.05V22.45ZM12 12.7H18V11.3H12V12.7ZM12 15.7H18V14.3H12V15.7ZM12 18.7H15V17.3H12V18.7ZM17.354 22.3438L17.7011 21.3025L16.3729 20.8598L16.0258 21.9011L17.354 22.3438ZM17.8901 20.9966L21.349 17.5378L20.3591 16.5478L16.9002 20.0067L17.8901 20.9966ZM22.2122 18.401L18.7534 21.8599L19.7433 22.8498L23.2022 19.3909L22.2122 18.401ZM18.4475 22.0489L17.4062 22.396L17.8489 23.7242L18.8902 23.3771L18.4475 22.0489ZM18.7534 21.8599C18.7047 21.9086 18.6778 21.9353 18.6569 21.9551C18.6389 21.9722 18.6349 21.9747 18.6368 21.9733L19.4799 23.091C19.5793 23.016 19.6642 22.9289 19.7433 22.8498L18.7534 21.8599ZM18.8902 23.3771C18.9963 23.3417 19.1122 23.3047 19.2237 23.2493L18.6011 21.9954C18.6032 21.9944 18.5992 21.9967 18.5758 22.0052C18.5487 22.0151 18.5128 22.0271 18.4475 22.0489L18.8902 23.3771ZM18.6368 21.9733C18.6256 21.9818 18.6137 21.9892 18.6011 21.9954L19.2237 23.2493C19.3138 23.2046 19.3996 23.1516 19.4799 23.091L18.6368 21.9733ZM22.2122 17.5378C22.3441 17.6697 22.4223 17.7482 22.4777 17.8102C22.5297 17.8685 22.5323 17.8806 22.5264 17.8688L23.7809 17.2471C23.6495 16.982 23.4148 16.7605 23.2022 16.5478L22.2122 17.5378ZM23.2022 19.3909C23.4148 19.1783 23.6495 18.9567 23.7809 18.6916L22.5264 18.07C22.5323 18.0581 22.5297 18.0702 22.4777 18.1285C22.4223 18.1905 22.3441 18.2691 22.2122 18.401L23.2022 19.3909ZM22.5264 17.8688C22.5579 17.9322 22.5579 18.0066 22.5264 18.07L23.7809 18.6916C24.0064 18.2365 24.0064 17.7022 23.7809 17.2471L22.5264 17.8688ZM21.349 17.5378C21.4809 17.4059 21.5595 17.3277 21.6215 17.2723C21.6798 17.2203 21.6919 17.2177 21.68 17.2236L21.0584 15.9691C20.7933 16.1005 20.5717 16.3352 20.3591 16.5478L21.349 17.5378ZM23.2022 16.5478C22.9895 16.3352 22.768 16.1005 22.5029 15.9691L21.8812 17.2236C21.8694 17.2177 21.8815 17.2202 21.9398 17.2723C22.0018 17.3277 22.0803 17.4059 22.2122 17.5378L23.2022 16.5478ZM21.68 17.2236C21.7434 17.1921 21.8178 17.1921 21.8812 17.2236L22.5029 15.9691C22.0478 15.7436 21.5135 15.7436 21.0584 15.9691L21.68 17.2236ZM17.7011 21.3025C17.7229 21.2372 17.7349 21.2013 17.7448 21.1742C17.7533 21.1508 17.7556 21.1468 17.7546 21.1489L16.5007 20.5263C16.4453 20.6378 16.4083 20.7537 16.3729 20.8598L17.7011 21.3025ZM16.9002 20.0067C16.8211 20.0858 16.734 20.1707 16.659 20.2701L17.7767 21.1132C17.7753 21.1151 17.7778 21.1111 17.7949 21.0931C17.8147 21.0722 17.8414 21.0453 17.8901 20.9966L16.9002 20.0067ZM17.7546 21.1489C17.7608 21.1363 17.7682 21.1244 17.7767 21.1132L16.659 20.2701C16.5984 20.3504 16.5454 20.4362 16.5007 20.5263L17.7546 21.1489ZM16.0258 21.9011C15.9548 22.1142 15.8855 22.3199 15.8454 22.4904C15.8078 22.6505 15.7601 22.9127 15.8579 23.1871L17.1766 22.7169C17.2001 22.7829 17.2005 22.8334 17.1999 22.8492C17.1994 22.8616 17.1983 22.8532 17.2083 22.8106C17.2303 22.7172 17.2741 22.5834 17.354 22.3438L16.0258 21.9011ZM17.4062 22.396C17.1666 22.4759 17.0328 22.5197 16.9393 22.5417C16.8968 22.5517 16.8884 22.5506 16.9008 22.5501C16.9166 22.5495 16.9671 22.5499 17.0331 22.5734L16.5629 23.8921C16.8373 23.9899 17.0995 23.9422 17.2596 23.9046C17.4301 23.8645 17.6358 23.7952 17.8489 23.7242L17.4062 22.396ZM15.8579 23.1871C15.9752 23.516 16.234 23.7748 16.5629 23.8921L17.0331 22.5734C17.1001 22.5973 17.1527 22.6499 17.1766 22.7169L15.8579 23.1871Z" fill="#C7C8D3"/>
</svg>
