<svg width="1em" height="1em" viewBox="0 0 24 24" fill="none" xmlns="http://www.w3.org/2000/svg">
<g id="Icon/Delete">
<path id="Icon" d="M13 10C13 9.44772 13.4477 9 14 9C14.5523 9 15 9.44772 15 10H13ZM15 18C15 18.5523 14.5523 19 14 19C13.4477 19 13 18.5523 13 18H15ZM9 10C9 9.44772 9.44771 9 10 9C10.5523 9 11 9.44772 11 10H9ZM11 18C11 18.5523 10.5523 19 10 19C9.44771 19 9 18.5523 9 18H11ZM16.908 20.782L16.454 19.891H16.454L16.908 20.782ZM17.782 19.908L16.891 19.454L16.891 19.454L17.782 19.908ZM6.21799 19.908L7.10899 19.454V19.454L6.21799 19.908ZM7.09202 20.782L7.54601 19.891H7.54601L7.09202 20.782ZM19 6C19.5523 6 20 6.44771 20 7C20 7.55228 19.5523 8 19 8V6ZM5 8C4.44771 8 4 7.55228 4 7C4 6.44771 4.44771 6 5 6V8ZM16.5 7C16.5 7.55228 16.0523 8 15.5 8C14.9477 8 14.5 7.55228 14.5 7H16.5ZM9.5 7C9.5 7.55228 9.05229 8 8.5 8C7.94771 8 7.5 7.55228 7.5 7H9.5ZM15 10V18H13V10H15ZM11 10V18H9V10H11ZM7 7V17.8H5V7H7ZM9.2 20H14.8V22H9.2V20ZM19 7V17.8H17V7H19ZM14.8 20C15.3766 20 15.7488 19.9992 16.0322 19.9761C16.3038 19.9539 16.4045 19.9162 16.454 19.891L17.362 21.673C16.9836 21.8658 16.5904 21.9371 16.195 21.9694C15.8114 22.0008 15.3436 22 14.8 22V20ZM19 17.8C19 18.3436 19.0008 18.8114 18.9694 19.195C18.9371 19.5904 18.8658 19.9836 18.673 20.362L16.891 19.454C16.9162 19.4045 16.9539 19.3038 16.9761 19.0322C16.9992 18.7488 17 18.3766 17 17.8H19ZM16.454 19.891C16.6422 19.7951 16.7951 19.6422 16.891 19.454L18.673 20.362C18.3854 20.9265 17.9265 21.3854 17.362 21.673L16.454 19.891ZM7 17.8C7 18.3766 7.00078 18.7488 7.02393 19.0322C7.04612 19.3038 7.0838 19.4045 7.10899 19.454L5.32698 20.362C5.13419 19.9836 5.06287 19.5904 5.03057 19.195C4.99922 18.8114 5 18.3436 5 17.8H7ZM9.2 22C8.65645 22 8.18864 22.0008 7.80497 21.9694C7.40963 21.9371 7.01641 21.8658 6.63803 21.673L7.54601 19.891C7.59545 19.9162 7.69617 19.9539 7.96784 19.9761C8.25117 19.9992 8.62345 20 9.2 20V22ZM7.10899 19.454C7.20487 19.6422 7.35785 19.7951 7.54601 19.891L6.63803 21.673C6.07354 21.3854 5.6146 20.9265 5.32698 20.362L7.10899 19.454ZM19 8H18V6H19V8ZM18 8H6V6H18V8ZM6 8H5V6H6V8ZM14.5 6.2C14.5 5.06743 13.4669 4 12 4V2C14.399 2 16.5 3.79795 16.5 6.2H14.5ZM12 4C10.5331 4 9.5 5.06743 9.5 6.2H7.5C7.5 3.79795 9.60095 2 12 2V4ZM16.5 6.2V7H14.5V6.2H16.5ZM9.5 6.2V7H7.5V6.2H9.5Z" fill="currentColor"/>
</g>
</svg>
