<svg width="1em" height="1em" viewBox="0 0 24 24" fill="none" xmlns="http://www.w3.org/2000/svg">
<g id="Icon/Edit">
<path id="Icon" d="M5.01149 16.9639L5.96017 17.2801H5.96017L5.01149 16.9639ZM5.76068 14.7163L4.81199 14.4001H4.81199L5.76068 14.7163ZM6.53372 13.4655L7.24083 14.1726L7.24083 14.1726L6.53372 13.4655ZM13.9996 5.9997L13.2925 5.29259V5.29259L13.9996 5.9997ZM17.9996 9.9997L18.7067 10.7068H18.7067L17.9996 9.9997ZM10.5337 17.4655L9.82662 16.7584L9.82661 16.7584L10.5337 17.4655ZM9.28291 18.2386L9.59914 19.1873H9.59914L9.28291 18.2386ZM7.03535 18.9878L7.35158 19.9365L7.35158 19.9365L7.03535 18.9878ZM10.1237 17.8483L9.52144 17.0499L9.52144 17.05L10.1237 17.8483ZM9.80861 18.043L9.3639 17.1473L9.80861 18.043ZM18.9632 7.11167L18.0672 7.55568V7.55568L18.9632 7.11167ZM18.9632 8.88773L18.0672 8.44371V8.44371L18.9632 8.88773ZM15.1115 5.03609L15.5555 5.93211V5.93211L15.1115 5.03609ZM16.8876 5.03609L16.4436 5.93211V5.93211L16.8876 5.03609ZM5.95627 14.1907L6.85195 14.6354L6.85195 14.6354L5.95627 14.1907ZM6.151 13.8756L5.35268 13.2733L5.35268 13.2733L6.151 13.8756ZM4.6388 18.7544L3.69689 19.0903L4.6388 18.7544ZM5.24482 19.3605L4.90894 20.3024L4.90894 20.3024L5.24482 19.3605ZM13.7067 6.29262C13.3161 5.9021 12.683 5.9021 12.2924 6.29262C11.9019 6.68315 11.9019 7.31631 12.2924 7.70684L13.7067 6.29262ZM16.2924 11.7068C16.683 12.0974 17.3161 12.0974 17.7067 11.7068C18.0972 11.3163 18.0972 10.6831 17.7067 10.2926L16.2924 11.7068ZM11.9996 18.9997C11.4473 18.9997 10.9996 19.4474 10.9996 19.9997C10.9996 20.552 11.4473 20.9997 11.9996 20.9997V18.9997ZM18.9996 20.9997C19.5518 20.9997 19.9996 20.552 19.9996 19.9997C19.9996 19.4474 19.5518 18.9997 18.9996 18.9997V20.9997ZM5.96017 17.2801L6.70936 15.0326L4.81199 14.4001L4.06281 16.6477L5.96017 17.2801ZM7.24083 14.1726L14.7067 6.7068L13.2925 5.29259L5.82662 12.7584L7.24083 14.1726ZM17.2925 9.29259L9.82662 16.7584L11.2408 18.1726L18.7067 10.7068L17.2925 9.29259ZM8.96668 17.2899L6.71912 18.0391L7.35158 19.9365L9.59914 19.1873L8.96668 17.2899ZM9.82661 16.7584C9.60853 16.9765 9.56433 17.0176 9.52144 17.0499L10.7259 18.6466C10.9055 18.5111 11.0605 18.353 11.2408 18.1726L9.82661 16.7584ZM9.59914 19.1873C9.84109 19.1066 10.0519 19.0387 10.2533 18.9387L9.3639 17.1473C9.31578 17.1712 9.25928 17.1924 8.96668 17.2899L9.59914 19.1873ZM9.52144 17.05C9.47205 17.0872 9.41931 17.1198 9.3639 17.1473L10.2533 18.9387C10.4195 18.8561 10.5778 18.7584 10.7259 18.6466L9.52144 17.05ZM17.2925 6.7068C17.8948 7.30915 18.0127 7.4457 18.0672 7.55568L19.8592 6.66765C19.6222 6.18944 19.1948 5.78075 18.7067 5.29259L17.2925 6.7068ZM18.7067 10.7068C19.1948 10.2186 19.6222 9.80995 19.8592 9.33174L18.0672 8.44371C18.0127 8.55369 17.8948 8.69025 17.2925 9.29259L18.7067 10.7068ZM18.0672 7.55568C18.2058 7.83546 18.2058 8.16394 18.0672 8.44371L19.8592 9.33174C20.2751 8.49241 20.2751 7.50698 19.8592 6.66765L18.0672 7.55568ZM14.7067 6.7068C15.309 6.10447 15.4456 5.98661 15.5555 5.93211L14.6675 4.14007C14.1893 4.37704 13.7806 4.80444 13.2925 5.29259L14.7067 6.7068ZM18.7067 5.29259C18.2185 4.80443 17.8098 4.37704 17.3316 4.14007L16.4436 5.93211C16.5536 5.98661 16.6901 6.10446 17.2925 6.7068L18.7067 5.29259ZM15.5555 5.93211C15.8353 5.79346 16.1638 5.79346 16.4436 5.93211L17.3316 4.14007C16.4923 3.72414 15.5068 3.72414 14.6675 4.14007L15.5555 5.93211ZM6.70936 15.0326C6.80689 14.74 6.82806 14.6835 6.85195 14.6354L5.06059 13.7459C4.96058 13.9474 4.89265 14.1582 4.81199 14.4001L6.70936 15.0326ZM5.82662 12.7584C5.64628 12.9388 5.48813 13.0938 5.35268 13.2733L6.94931 14.4778C6.98167 14.4349 7.02274 14.3907 7.24083 14.1726L5.82662 12.7584ZM6.85195 14.6354C6.87946 14.5799 6.91205 14.5272 6.94931 14.4778L5.35268 13.2733C5.24091 13.4215 5.14313 13.5797 5.06059 13.7459L6.85195 14.6354ZM4.06281 16.6477C3.90626 17.1173 3.76595 17.5351 3.68608 17.875C3.60969 18.2001 3.53752 18.6434 3.69689 19.0903L5.5807 18.4186C5.62422 18.5406 5.57555 18.5772 5.63305 18.3325C5.68706 18.1026 5.79102 17.7876 5.96017 17.2801L4.06281 16.6477ZM6.71912 18.0391C6.21166 18.2082 5.89662 18.3122 5.66675 18.3662C5.42205 18.4237 5.45867 18.375 5.5807 18.4186L4.90894 20.3024C5.35585 20.4617 5.79919 20.3896 6.12426 20.3132C6.46416 20.2333 6.88194 20.093 7.35158 19.9365L6.71912 18.0391ZM3.69689 19.0903C3.89853 19.6558 4.34349 20.1007 4.90894 20.3024L5.5807 18.4186L5.5807 18.4186L3.69689 19.0903ZM12.2924 7.70684L16.2924 11.7068L17.7067 10.2926L13.7067 6.29262L12.2924 7.70684ZM11.9996 20.9997H18.9996V18.9997H11.9996V20.9997Z" fill="currentColor"/>
</g>
</svg>
