<svg width="1em" height="1em" viewBox="0 0 18 18" fill="none" xmlns="http://www.w3.org/2000/svg">
<g id="Essentials/out">
<path id="Icon" d="M15.75 9.8C16.1918 9.8 16.55 9.44183 16.55 9C16.55 8.55817 16.1918 8.2 15.75 8.2V9.8ZM9 8.2C8.55817 8.2 8.2 8.55817 8.2 9C8.2 9.44183 8.55817 9.8 9 9.8V8.2ZM14.8157 6.18431C14.5033 5.87189 13.9967 5.87189 13.6843 6.18431C13.3719 6.49673 13.3719 7.00327 13.6843 7.31568L14.8157 6.18431ZM15.6515 8.15147L15.0858 8.71716L15.6515 8.15147ZM15.6515 9.84853L16.2172 10.4142L16.2172 10.4142L15.6515 9.84853ZM13.6843 10.6843C13.3719 10.9967 13.3719 11.5033 13.6843 11.8157C13.9967 12.1281 14.5033 12.1281 14.8157 11.8157L13.6843 10.6843ZM16.1526 8.76824L15.3918 9.01545V9.01545L16.1526 8.76824ZM16.1526 9.23176L15.3918 8.98455L16.1526 9.23176ZM4.75736 4.75736L5.32304 5.32305L4.75736 4.75736ZM4.75736 13.2426L4.19167 13.8083L4.75736 13.2426ZM11.5996 4.49475C11.9822 4.71584 12.4715 4.58498 12.6926 4.20245C12.9137 3.81993 12.7828 3.33059 12.4003 3.10949L11.5996 4.49475ZM12.4003 14.8905C12.7828 14.6694 12.9137 14.1801 12.6926 13.7975C12.4715 13.415 11.9822 13.2842 11.5996 13.5053L12.4003 14.8905ZM15.75 8.2H9V9.8H15.75V8.2ZM13.6843 7.31568L15.0858 8.71716L16.2172 7.58579L14.8157 6.18431L13.6843 7.31568ZM15.0858 9.28284L13.6843 10.6843L14.8157 11.8157L16.2172 10.4142L15.0858 9.28284ZM15.0858 8.71716C15.2436 8.875 15.3275 8.9598 15.3827 9.02476C15.4318 9.08258 15.4096 9.07027 15.3918 9.01545L16.9135 8.52102C16.84 8.29496 16.7158 8.12277 16.6024 7.98927C16.4952 7.86292 16.3563 7.72496 16.2172 7.58579L15.0858 8.71716ZM16.2172 10.4142C16.3563 10.275 16.4952 10.1371 16.6024 10.0107C16.7158 9.87723 16.84 9.70504 16.9135 9.47897L15.3918 8.98455C15.4096 8.92973 15.4318 8.91742 15.3827 8.97524C15.3275 9.04021 15.2436 9.12501 15.0858 9.28284L16.2172 10.4142ZM15.3918 9.01545C15.3885 9.00541 15.3885 8.99459 15.3918 8.98455L16.9135 9.47897C17.0146 9.16767 17.0146 8.83233 16.9135 8.52102L15.3918 9.01545ZM4.19167 4.19167C1.53611 6.84724 1.53611 11.1528 4.19167 13.8083L5.32305 12.677C3.29232 10.6462 3.29232 7.35377 5.32304 5.32305L4.19167 4.19167ZM12.4003 3.10949C9.80003 1.60654 6.4173 1.96605 4.19167 4.19167L5.32304 5.32305C7.02359 3.6225 9.61077 3.34518 11.5996 4.49475L12.4003 3.10949ZM4.19167 13.8083C6.4173 16.034 9.80004 16.3935 12.4003 14.8905L11.5996 13.5053C9.61077 14.6548 7.02359 14.3775 5.32305 12.677L4.19167 13.8083Z" fill="currentColor"/>
</g>
</svg>
