<svg width="1em" height="1em" viewBox="0 0 18 18" fill="none" xmlns="http://www.w3.org/2000/svg">
<g id="Frame 19271">
<path id="Exclude" fill-rule="evenodd" clip-rule="evenodd" d="M9.0137 2.00359C9.50751 2.00359 10.0014 2.00344 10.4953 2.00328C11.4833 2.00297 12.4713 2.00265 13.459 2.00359C15.0412 2.0057 15.9997 2.93063 15.9997 4.452L15.9998 7.07544V7.07552C16 8.82429 16.0002 10.573 15.9997 12.3219C15.9997 13.6808 15.0054 14.6754 13.5961 14.6318C12.5588 14.5994 11.7258 14.904 11.0496 15.6594C10.8387 15.8948 10.6034 16.1099 10.3682 16.3248L10.3682 16.3248L10.3682 16.3248C10.2943 16.3924 10.2204 16.4599 10.1473 16.528C9.47399 17.1554 8.54248 17.1583 7.86627 16.5309C7.46361 16.1574 7.06606 15.779 6.67653 15.3921C6.15643 14.8751 5.5291 14.617 4.78433 14.6465C4.10084 14.6733 3.45162 14.6001 2.89432 14.1683C2.33118 13.7322 2.01022 13.1695 2.00803 12.4739C1.99782 9.71034 1.99709 6.94612 2.0073 4.18191C2.01168 2.96298 3.07158 2.01344 4.42325 2.005C5.48602 1.99816 6.54879 1.9998 7.61157 2.00144C8.07919 2.00217 8.54681 2.00289 9.01443 2.00289L9.0137 2.00359ZM8.36521 11.9987H8.36513C7.90111 11.9981 7.43695 11.9976 6.97316 12C6.59175 12.0017 6.26241 11.8894 6.08548 11.4705C5.90244 11.0369 6.03417 10.668 6.28385 10.3208C7.54836 8.56045 10.4526 8.55959 11.7164 10.3191C11.9661 10.6663 12.0978 11.0343 11.914 11.4688C11.7363 11.8886 11.4085 12.0017 11.0271 12C10.5681 11.9983 10.1095 11.9988 9.65072 11.9994H9.65064C9.42121 11.9997 9.19175 12 8.96221 12L8.96144 11.9991C8.76275 11.9991 8.56399 11.9989 8.36521 11.9987ZM7.18753 6.58058C7.19337 7.53153 8.014 8.31648 9.00241 8.31648L9.00314 8.31718C9.9952 8.31718 10.8115 7.53645 10.8173 6.58198C10.8231 5.62119 9.97623 4.8081 8.9849 4.82287C7.99649 4.83764 7.1817 5.63455 7.18753 6.58058Z" fill="currentColor"/>
</g>
</svg>
