<svg width="1em" height="1em" viewBox="0 0 28 28" fill="none" xmlns="http://www.w3.org/2000/svg">
<circle cx="14" cy="14" r="13" fill="#2C2C34" stroke="#121212" stroke-width="2"/>
<path d="M15.3437 6.6934L15.337 9.92768L15.3303 13.162L15.0215 12.4111V12.4092L14.6211 19.6093C15.0148 20.5642 15.2251 21.0744 15.2274 21.0763C15.2296 21.0783 15.4533 21.0898 15.724 21.1014C16.5428 21.136 17.5585 21.2111 18.3303 21.2939C18.5093 21.3131 18.6614 21.3227 18.6726 21.315C18.6838 21.3073 18.686 18.0153 18.6838 13.9975L18.6771 6.6934H15.3437Z" fill="url(#paint0_linear_21_10883)"/>
<path d="M9.31372 6.68372V13.9955C9.31372 18.0172 9.3182 21.3112 9.32491 21.3169C9.33162 21.3227 9.62021 21.2977 9.96921 21.265C10.3182 21.2322 10.7992 21.1899 11.0386 21.1726C11.4055 21.1456 12.5062 21.0859 12.6315 21.084C12.6695 21.084 12.6717 20.9204 12.6762 17.9864L12.6829 14.8888L12.9491 15.5357C12.9894 15.6358 13.0028 15.6666 13.0431 15.7648L13.4436 8.56653C13.3585 8.36054 13.4033 8.46835 13.3071 8.23348C12.9805 7.43838 12.703 6.7665 12.6919 6.7357L12.6695 6.68179H9.31372V6.68372Z" fill="url(#paint1_linear_21_10883)"/>
<path d="M9.31372 6.68372L12.6807 14.8945V14.8907L12.9469 15.5375C14.4257 19.1395 15.2199 21.0724 15.2244 21.0762C15.2266 21.0781 15.4503 21.0897 15.721 21.1012C16.5398 21.1359 17.5555 21.211 18.3274 21.2938C18.5041 21.313 18.6585 21.3226 18.6674 21.3149L15.3295 13.16V13.1619L15.0208 12.4111C14.7188 11.6776 14.5174 11.1867 13.3026 8.23347C12.976 7.43838 12.6986 6.7665 12.6874 6.7357L12.665 6.68179H10.9894L9.31372 6.68372Z" fill="#E30A17"/>
<defs>
<linearGradient id="paint0_linear_21_10883" x1="20.1873" y1="17.628" x2="14.852" y2="19.971" gradientUnits="userSpaceOnUse">
<stop stop-color="#B20610"/>
<stop offset="0.255959" stop-color="#B20610"/>
<stop offset="1" stop-color="#590004"/>
</linearGradient>
<linearGradient id="paint1_linear_21_10883" x1="7.69584" y1="9.88986" x2="13.4657" y2="7.38521" gradientUnits="userSpaceOnUse">
<stop stop-color="#B20610"/>
<stop offset="0.255959" stop-color="#B20610"/>
<stop offset="1" stop-color="#590004"/>
</linearGradient>
</defs>
</svg>
