<svg width="72" height="72" viewBox="0 0 72 72" fill="none" xmlns="http://www.w3.org/2000/svg">
<g filter="url(#filter0_d_1260_6663)">
<path d="M9.5562 22.1309C10.9793 15.8691 15.8691 10.9793 22.1309 9.55619C31.2605 7.48127 40.7394 7.48127 49.8691 9.5562C56.1309 10.9793 61.0207 15.8691 62.4438 22.1309C64.5187 31.2605 64.5187 40.7394 62.4438 49.8691C61.0207 56.1309 56.1309 61.0207 49.8691 62.4438C40.7394 64.5187 31.2605 64.5187 22.1309 62.4438C15.8691 61.0207 10.9793 56.1309 9.55619 49.8691C7.48127 40.7394 7.48127 31.2605 9.5562 22.1309Z" fill="#6D6ADA"/>
</g>
<path d="M36 28V44M44 36L28 36" stroke="white" stroke-width="2" stroke-linecap="round"/>
<defs>
<filter id="filter0_d_1260_6663" x="0" y="0" width="72" height="72" filterUnits="userSpaceOnUse" color-interpolation-filters="sRGB">
<feFlood flood-opacity="0" result="BackgroundImageFix"/>
<feColorMatrix in="SourceAlpha" type="matrix" values="0 0 0 0 0 0 0 0 0 0 0 0 0 0 0 0 0 0 127 0" result="hardAlpha"/>
<feOffset/>
<feGaussianBlur stdDeviation="4"/>
<feComposite in2="hardAlpha" operator="out"/>
<feColorMatrix type="matrix" values="0 0 0 0 0 0 0 0 0 0 0 0 0 0 0 0 0 0 0.5 0"/>
<feBlend mode="normal" in2="BackgroundImageFix" result="effect1_dropShadow_1260_6663"/>
<feBlend mode="normal" in="SourceGraphic" in2="effect1_dropShadow_1260_6663" result="shape"/>
</filter>
</defs>
</svg>
