<svg width="1em" height="1em" viewBox="0 0 20 20" fill="none" xmlns="http://www.w3.org/2000/svg">
<path d="M10.0152 0C9.58843 0 9.16161 0.230469 8.94071 0.695312L6.49587 5.86719L1.02588 6.69531C0.0449459 6.84375 -0.348175 8.10547 0.363187 8.82812L4.3206 12.8516L3.3846 18.5352C3.21612 19.5547 4.24572 20.332 5.12182 19.8516L10.0152 17.1719V0Z" fill="#6D6ADA"/>
<path d="M9.95351 0C10.3803 0 10.8071 0.230469 11.028 0.695312L13.4729 5.86719L18.9429 6.69531C19.9238 6.84375 20.3169 8.10547 19.6056 8.82812L15.6481 12.8516L16.5841 18.5352C16.7526 19.5547 15.723 20.332 14.8469 19.8516L9.95351 17.1719V0Z" fill="#6D6ADA"/>
</svg>
