<svg width="20" height="20" viewBox="0 0 20 20" fill="none" xmlns="http://www.w3.org/2000/svg">
<path d="M3.00024 5.56098L13.0002 5.56098M13.0002 5.56098C13.0002 6.97536 14.1195 8.12195 15.5002 8.12195C16.881 8.12195 18.0002 6.97536 18.0002 5.56098C18.0002 4.14659 16.881 3 15.5002 3C14.1195 3 13.0002 4.14659 13.0002 5.56098ZM8.00024 14.439L18.0002 14.439M8.00024 14.439C8.00024 15.8534 6.88096 17 5.50024 17C4.11953 17 3.00024 15.8534 3.00024 14.439C3.00024 13.0246 4.11953 11.878 5.50024 11.878C6.88096 11.878 8.00024 13.0246 8.00024 14.439Z" stroke="currentColor" stroke-width="1.66667" stroke-linecap="round" stroke-linejoin="round"/>
</svg>
