<svg width="1em" height="1em" viewBox="0 0 20 20" fill="none" xmlns="http://www.w3.org/2000/svg">
<g  opacity="0.6">
<path d="M17.6256 19.0405C18.0161 19.431 18.6493 19.431 19.0398 19.0405C19.4303 18.6499 19.4303 18.0168 19.0398 17.6262L17.6256 19.0405ZM14.3915 8.52943C14.3915 11.7673 11.7667 14.3922 8.52876 14.3922V16.3922C12.8712 16.3922 16.3915 12.8719 16.3915 8.52943H14.3915ZM8.52876 14.3922C5.29086 14.3922 2.66602 11.7673 2.66602 8.52943H0.666016C0.666016 12.8719 4.18629 16.3922 8.52876 16.3922V14.3922ZM2.66602 8.52943C2.66602 5.29153 5.29086 2.66669 8.52876 2.66669V0.666687C4.18629 0.666687 0.666016 4.18696 0.666016 8.52943H2.66602ZM8.52876 2.66669C11.7667 2.66669 14.3915 5.29153 14.3915 8.52943H16.3915C16.3915 4.18696 12.8712 0.666687 8.52876 0.666687V2.66669ZM12.7236 14.1385L17.6256 19.0405L19.0398 17.6262L14.1378 12.7243L12.7236 14.1385Z" fill="currentColor"/>
</g>
</svg>
