<svg width="22" height="21" viewBox="0 0 22 21" fill="none" xmlns="http://www.w3.org/2000/svg">
<g id="Icon/search2" opacity="0.5">
<path id="Icon" d="M19.4602 20.5546C19.8507 20.9451 20.4839 20.9451 20.8744 20.5546C21.2649 20.1641 21.2649 19.5309 20.8744 19.1404L19.4602 20.5546ZM5.07217 11.462C4.86706 11.9748 5.11648 12.5567 5.62926 12.7619C6.14204 12.967 6.72401 12.7175 6.92913 12.2048L5.07217 11.462ZM7.4654 8.1715L8.39387 8.5429V8.5429L7.4654 8.1715ZM8.10226 7.99292L8.70226 7.19292L8.10226 7.99292ZM10.5657 9.8405L11.1657 9.0405L11.1657 9.0405L10.5657 9.8405ZM11.2026 9.66191L10.2741 9.29052V9.29052L11.2026 9.66191ZM13.5958 6.37143C13.8009 5.85865 13.5515 5.27668 13.0387 5.07156C12.5259 4.86645 11.944 5.11587 11.7388 5.62865L13.5958 6.37143ZM15.932 9.06318C15.932 12.6801 12.9999 15.6122 9.383 15.6122V17.6122C14.1045 17.6122 17.932 13.7847 17.932 9.06318H15.932ZM9.383 15.6122C5.76608 15.6122 2.83398 12.6801 2.83398 9.06318H0.833984C0.833984 13.7847 4.66151 17.6122 9.383 17.6122V15.6122ZM2.83398 9.06318C2.83398 5.44626 5.76608 2.51416 9.383 2.51416V0.51416C4.66151 0.51416 0.833984 4.34169 0.833984 9.06318H2.83398ZM9.383 2.51416C12.9999 2.51416 15.932 5.44626 15.932 9.06318H17.932C17.932 4.34169 14.1045 0.51416 9.383 0.51416V2.51416ZM14.0681 15.1624L19.4602 20.5546L20.8744 19.1404L15.4823 13.7482L14.0681 15.1624ZM6.92913 12.2048L8.39387 8.5429L6.53692 7.80011L5.07217 11.462L6.92913 12.2048ZM7.50226 8.79292L9.9657 10.6405L11.1657 9.0405L8.70226 7.19292L7.50226 8.79292ZM12.131 10.0333L13.5958 6.37143L11.7388 5.62865L10.2741 9.29052L12.131 10.0333ZM9.9657 10.6405C10.7115 11.1998 11.7848 10.8988 12.131 10.0333L10.2741 9.29052C10.4166 8.93413 10.8586 8.81019 11.1657 9.0405L9.9657 10.6405ZM8.39387 8.5429C8.25132 8.89929 7.80934 9.02323 7.50226 8.79292L8.70226 7.19292C7.9565 6.6336 6.88313 6.93459 6.53692 7.80011L8.39387 8.5429Z" fill="#B6B2EA"/>
</g>
</svg>
