<svg width="1em" height="1em" viewBox="0 0 14 14" fill="none" xmlns="http://www.w3.org/2000/svg">
<g id="ThumbUpAltRounded">
<path id="Vector" d="M7.65301 1.20173L4.42134 4.4334C4.20551 4.64923 4.08301 4.94673 4.08301 5.2559V11.0834C4.08301 11.7251 4.60801 12.2501 5.24967 12.2501H10.4997C10.9663 12.2501 11.3863 11.9701 11.573 11.5442L13.4747 7.10506C13.9647 5.95006 13.1188 4.66673 11.8647 4.66673H8.56884L9.12301 1.99506C9.18134 1.7034 9.09384 1.4059 8.88384 1.1959C8.53967 0.857563 7.99134 0.857563 7.65301 1.20173ZM1.74967 12.2501C2.39134 12.2501 2.91634 11.7251 2.91634 11.0834V6.41673C2.91634 5.77506 2.39134 5.25006 1.74967 5.25006C1.10801 5.25006 0.583008 5.77506 0.583008 6.41673V11.0834C0.583008 11.7251 1.10801 12.2501 1.74967 12.2501Z" fill="currentColor"/>
</g>
</svg>
