<svg width="1em" height="1em" viewBox="0 0 16 16" fill="none" xmlns="http://www.w3.org/2000/svg">
<g id="ThumbUpAltRounded">
<path id="Vector" d="M7.25203 14.626L10.9454 10.9327C11.192 10.686 11.332 10.346 11.332 9.9927V3.3327C11.332 2.59937 10.732 1.99937 9.9987 1.99937H3.9987C3.46537 1.99937 2.98536 2.31937 2.77203 2.80604L0.598699 7.87937C0.0386982 9.19937 1.00537 10.666 2.4387 10.666H6.20537L5.57203 13.7194C5.50537 14.0527 5.60537 14.3927 5.84537 14.6327C6.2387 15.0194 6.86537 15.0194 7.25203 14.626ZM13.9987 1.99937C13.2654 1.99937 12.6654 2.59937 12.6654 3.3327V8.66604C12.6654 9.39937 13.2654 9.99937 13.9987 9.99937C14.732 9.99937 15.332 9.39937 15.332 8.66604V3.3327C15.332 2.59937 14.732 1.99937 13.9987 1.99937Z" fill="currentColor"/>
</g>
</svg>
