<svg width="18" height="18" viewBox="0 0 18 18" fill="none" xmlns="http://www.w3.org/2000/svg">
<g id="Icon/Write" clip-path="url(#clip0_491_2744)">
<path id="Icon" d="M3.88803 15.423L4.25122 14.7102H4.25122L3.88803 15.423ZM2.57698 14.112L1.86418 14.4752L1.86418 14.4752L2.57698 14.112ZM14.112 2.57698L14.4752 1.86418L14.4752 1.86418L14.112 2.57698ZM15.423 3.88803L14.7102 4.25122V4.25122L15.423 3.88803ZM3.88803 2.57698L4.25122 3.28979V3.28979L3.88803 2.57698ZM2.57698 3.88803L3.28979 4.25122H3.28979L2.57698 3.88803ZM14.95 8.25C14.95 8.69183 15.3082 9.05 15.75 9.05C16.1918 9.05 16.55 8.69183 16.55 8.25H14.95ZM8.25 16.55C8.69183 16.55 9.05 16.1918 9.05 15.75C9.05 15.3082 8.69183 14.95 8.25 14.95V16.55ZM6 5.2C5.55817 5.2 5.2 5.55817 5.2 6C5.2 6.44183 5.55817 6.8 6 6.8V5.2ZM12 6.8C12.4418 6.8 12.8 6.44183 12.8 6C12.8 5.55817 12.4418 5.2 12 5.2V6.8ZM6 8.2C5.55817 8.2 5.2 8.55817 5.2 9C5.2 9.44183 5.55817 9.8 6 9.8V8.2ZM12 9.8C12.4418 9.8 12.8 9.44183 12.8 9C12.8 8.55817 12.4418 8.2 12 8.2V9.8ZM6 11.2C5.55817 11.2 5.2 11.5582 5.2 12C5.2 12.4418 5.55817 12.8 6 12.8V11.2ZM9 12.8C9.44183 12.8 9.8 12.4418 9.8 12C9.8 11.5582 9.44183 11.2 9 11.2V12.8ZM10.6899 16.1224L11.4489 16.3754V16.3754L10.6899 16.1224ZM11.037 15.0812L10.2781 14.8282V14.8282L11.037 15.0812ZM11.3952 14.5017L11.9608 15.0674L11.9608 15.0673L11.3952 14.5017ZM14.854 11.0428L14.2884 10.4771L14.2884 10.4771L14.854 11.0428ZM16.7072 12.896L17.2729 13.4616L16.7072 12.896ZM13.2483 16.3548L12.6827 15.7892H12.6826L13.2483 16.3548ZM12.6688 16.713L12.9218 17.4719H12.9218L12.6688 16.713ZM11.6276 17.0601L11.8805 17.819L11.8805 17.819L11.6276 17.0601ZM13.0584 16.5322L13.5402 17.1708L13.0584 16.5322ZM12.9124 16.6224L12.5566 15.9058H12.5566L12.9124 16.6224ZM16.7072 11.0428L16.1415 11.6085V11.6085L16.7072 11.0428ZM17.1537 11.558L17.8705 11.2027V11.2027L17.1537 11.558ZM17.1537 12.3808L17.8705 12.736L17.1537 12.3808ZM15.3692 10.5963L15.7244 11.3132H15.7244L15.3692 10.5963ZM16.192 10.5963L15.8368 11.3132L15.8368 11.3132L16.192 10.5963ZM11.1276 14.8376L11.8442 15.1934V15.1934L11.1276 14.8376ZM11.2178 14.6916L10.5792 14.2098H10.5792L11.2178 14.6916ZM10.5173 16.952L11.2708 16.6833L10.5173 16.952ZM10.798 17.2328L10.5293 17.9863L10.798 17.2328ZM7.05 3.05H10.95V1.45H7.05V3.05ZM3.05 10.95V7.05H1.45V10.95H3.05ZM7.05 14.95C6.19672 14.95 5.60487 14.9494 5.14475 14.9118C4.69397 14.875 4.44051 14.8067 4.25122 14.7102L3.52484 16.1358C3.97728 16.3664 4.46473 16.4616 5.01446 16.5065C5.55485 16.5506 6.22312 16.55 7.05 16.55V14.95ZM1.45 10.95C1.45 11.7769 1.44938 12.4451 1.49353 12.9855C1.53844 13.5353 1.63364 14.0227 1.86418 14.4752L3.28979 13.7488C3.19334 13.5595 3.12505 13.306 3.08822 12.8552C3.05062 12.3951 3.05 11.8033 3.05 10.95H1.45ZM4.25122 14.7102C3.83726 14.4993 3.50071 14.1627 3.28979 13.7488L1.86418 14.4752C2.22849 15.1902 2.80982 15.7715 3.52484 16.1358L4.25122 14.7102ZM10.95 3.05C11.8033 3.05 12.3951 3.05062 12.8552 3.08822C13.306 3.12505 13.5595 3.19334 13.7488 3.28979L14.4752 1.86418C14.0227 1.63364 13.5353 1.53844 12.9855 1.49353C12.4451 1.44938 11.7769 1.45 10.95 1.45V3.05ZM16.55 7.05C16.55 6.22312 16.5506 5.55485 16.5065 5.01446C16.4616 4.46473 16.3664 3.97728 16.1358 3.52484L14.7102 4.25122C14.8067 4.44051 14.875 4.69397 14.9118 5.14475C14.9494 5.60487 14.95 6.19672 14.95 7.05H16.55ZM13.7488 3.28979C14.1627 3.50071 14.4993 3.83726 14.7102 4.25122L16.1358 3.52484C15.7715 2.80982 15.1902 2.22849 14.4752 1.86418L13.7488 3.28979ZM7.05 1.45C6.22312 1.45 5.55485 1.44938 5.01446 1.49353C4.46473 1.53844 3.97728 1.63364 3.52484 1.86418L4.25122 3.28979C4.44051 3.19334 4.69397 3.12505 5.14475 3.08822C5.60487 3.05062 6.19672 3.05 7.05 3.05V1.45ZM3.05 7.05C3.05 6.19672 3.05062 5.60487 3.08822 5.14475C3.12505 4.69397 3.19334 4.44051 3.28979 4.25122L1.86418 3.52484C1.63364 3.97728 1.53844 4.46473 1.49353 5.01446C1.44938 5.55485 1.45 6.22312 1.45 7.05H3.05ZM3.52484 1.86418C2.80982 2.22849 2.22849 2.80982 1.86418 3.52484L3.28979 4.25122C3.50071 3.83726 3.83726 3.50071 4.25122 3.28979L3.52484 1.86418ZM14.95 7.05V8.25H16.55V7.05H14.95ZM7.05 16.55H8.25V14.95H7.05V16.55ZM6 6.8H12V5.2H6V6.8ZM6 9.8H12V8.2H6V9.8ZM6 12.8H9V11.2H6V12.8ZM11.4489 16.3754L11.796 15.3341L10.2781 14.8282L9.93097 15.8695L11.4489 16.3754ZM11.9608 15.0673L15.4197 11.6085L14.2884 10.4771L10.8295 13.936L11.9608 15.0673ZM16.1415 12.3303L12.6827 15.7892L13.814 16.9205L17.2729 13.4616L16.1415 12.3303ZM12.4159 15.954L11.3746 16.3011L11.8805 17.819L12.9218 17.4719L12.4159 15.954ZM12.6826 15.7892C12.6336 15.8382 12.6079 15.8638 12.5882 15.8825C12.5718 15.898 12.5708 15.8979 12.5766 15.8935L13.5402 17.1708C13.6463 17.0907 13.7368 16.9977 13.814 16.9205L12.6826 15.7892ZM12.9218 17.4719C13.0254 17.4374 13.149 17.3981 13.2682 17.3389L12.5566 15.9058C12.5631 15.9026 12.5628 15.9035 12.5416 15.9113C12.5161 15.9206 12.4817 15.9321 12.4159 15.954L12.9218 17.4719ZM12.5766 15.8935C12.5703 15.8982 12.5636 15.9023 12.5566 15.9058L13.2682 17.3389C13.3638 17.2914 13.4549 17.2351 13.5402 17.1708L12.5766 15.8935ZM16.1415 11.6085C16.2742 11.7412 16.3501 11.8174 16.4031 11.8768C16.4524 11.932 16.4484 11.9364 16.4368 11.9132L17.8705 11.2027C17.73 10.9192 17.4798 10.684 17.2729 10.4771L16.1415 11.6085ZM17.2729 13.4616C17.4798 13.2547 17.73 13.0195 17.8705 12.736L16.4368 12.0256C16.4484 12.0023 16.4524 12.0067 16.4031 12.0619C16.3501 12.1213 16.2742 12.1976 16.1415 12.3303L17.2729 13.4616ZM16.4368 11.9132C16.4544 11.9486 16.4544 11.9902 16.4368 12.0256L17.8705 12.736C18.1098 12.2529 18.1098 11.6858 17.8705 11.2027L16.4368 11.9132ZM15.4197 11.6085C15.5524 11.4758 15.6287 11.3999 15.6881 11.3469C15.7433 11.2976 15.7477 11.3016 15.7244 11.3132L15.014 9.87953C14.7305 10.02 14.4953 10.2702 14.2884 10.4771L15.4197 11.6085ZM17.2729 10.4771C17.066 10.2702 16.8308 10.02 16.5473 9.87953L15.8368 11.3132C15.8136 11.3016 15.818 11.2976 15.8732 11.3469C15.9326 11.3999 16.0088 11.4758 16.1415 11.6085L17.2729 10.4771ZM15.7244 11.3132C15.7598 11.2956 15.8014 11.2956 15.8368 11.3132L16.5473 9.87953C16.0642 9.64016 15.4971 9.64016 15.014 9.87953L15.7244 11.3132ZM11.796 15.3341C11.8179 15.2683 11.8294 15.2339 11.8387 15.2084C11.8465 15.1872 11.8474 15.1869 11.8442 15.1934L10.4111 14.4818C10.3519 14.601 10.3126 14.7246 10.2781 14.8282L11.796 15.3341ZM10.8295 13.936C10.7523 14.0132 10.6593 14.1037 10.5792 14.2098L11.8565 15.1734C11.8521 15.1792 11.852 15.1782 11.8675 15.1618C11.8862 15.1421 11.9118 15.1164 11.9608 15.0674L10.8295 13.936ZM11.8442 15.1934C11.8477 15.1864 11.8518 15.1797 11.8565 15.1734L10.5792 14.2098C10.5149 14.2951 10.4586 14.3862 10.4111 14.4818L11.8442 15.1934ZM9.93097 15.8695C9.86057 16.0807 9.78944 16.2915 9.74808 16.4675C9.70952 16.6317 9.65574 16.9178 9.76373 17.2207L11.2708 16.6833C11.2996 16.7642 11.3007 16.8278 11.2998 16.853C11.299 16.8743 11.2965 16.8727 11.3057 16.8335C11.3145 16.7958 11.3296 16.7421 11.3548 16.662C11.3798 16.5826 11.4105 16.4905 11.4489 16.3754L9.93097 15.8695ZM11.3746 16.3011C11.2595 16.3395 11.1674 16.3702 11.088 16.3952C11.0079 16.4204 10.9542 16.4355 10.9165 16.4443C10.8773 16.4535 10.8757 16.451 10.897 16.4502C10.9222 16.4493 10.9858 16.4504 11.0667 16.4792L10.5293 17.9863C10.8322 18.0943 11.1184 18.0405 11.2825 18.0019C11.4585 17.9606 11.6693 17.8894 11.8805 17.819L11.3746 16.3011ZM9.76373 17.2207C9.89109 17.5778 10.1721 17.8589 10.5293 17.9863L11.0667 16.4792C11.1619 16.5132 11.2368 16.5881 11.2708 16.6833L9.76373 17.2207Z" fill="white"/>
</g>
<defs>
<clipPath id="clip0_491_2744">
<rect width="18" height="18" fill="white"/>
</clipPath>
</defs>
</svg>
