<svg width="1em" height="1em" viewBox="0 0 60 60" fill="none" xmlns="http://www.w3.org/2000/svg">
<g clip-path="url(#clip0_251_3678)">
<path d="M60 30C60 46.56 46.575 60 30 60C13.425 60 0 46.56 0 30C0 13.425 13.425 0 30 0C46.575 0 60 13.425 60 30Z" fill="#283544"/>
<path d="M44.0617 22.7617C43.898 22.8557 40.0009 24.8396 40.0009 29.2384C40.1845 34.255 44.9188 36.0143 45 36.0143C44.9188 36.1083 44.2853 38.4109 42.4086 40.8246C40.9192 42.9037 39.2662 45 36.756 45C34.3682 45 33.5111 43.6143 30.756 43.6143C27.7972 43.6143 26.96 45 24.6947 45C22.1845 45 20.409 42.7914 18.8384 40.7318C16.7981 38.0361 15.0638 33.8058 15.0026 29.7439C14.9613 27.5915 15.4112 25.4757 16.5532 23.6786C18.165 21.1696 21.0425 19.4665 24.185 19.4104C26.5927 19.3359 28.7355 20.9267 30.2049 20.9267C31.6131 20.9267 34.2458 19.4104 37.2245 19.4104C38.5102 19.4116 41.9388 19.7669 44.0617 22.7617ZM30.0013 18.9806C29.5727 17.015 30.756 15.0494 31.858 13.7955C33.2662 12.2792 35.4902 11.25 37.4081 11.25C37.5306 13.2156 36.7546 15.1434 35.3678 16.5474C34.1233 18.0637 31.9804 19.2053 30.0013 18.9806Z" fill="white"/>
</g>
<defs>
<clipPath id="clip0_251_3678">
<rect width="60" height="60" fill="white"/>
</clipPath>
</defs>
</svg>
