<svg width="1em" height="1em" viewBox="0 0 60 60" fill="none" xmlns="http://www.w3.org/2000/svg">
<circle cx="30" cy="30" r="30" fill="url(#paint0_linear_251_3674)"/>
<path d="M5.27626 26.4365C5.66428 26.0509 4.58284 26.1356 4.58284 25.9267C4.58284 25.6257 5.81652 25.5816 6.0161 25.5705C7.208 25.5015 8.4389 25.6156 9.61131 25.8319C11.9441 26.2626 14.2406 27.1534 16.2364 28.4289C18.0419 29.5829 20.0999 31.4114 19.8242 33.7692C19.5429 36.1766 16.5288 36.7232 14.5516 36.8014C13.8842 36.8281 13.1406 36.8705 12.5085 36.6192C12.1056 36.4591 12.1344 36.4379 12.1325 36.0744C12.1288 35.2637 12.1251 34.4529 12.1214 33.6422C12.1195 33.3477 12.1186 33.0532 12.1176 32.7587C12.1158 32.421 12.903 32.5691 13.1258 32.5866C13.8972 32.6474 14.6797 32.8011 15.413 33.0468C15.6971 33.1425 16.0526 33.2483 16.2578 33.4784C16.0962 33.7995 15.7249 33.9983 15.4938 34.2698C16.2763 34.8523 17.5898 34.1327 17.4961 33.1618C17.3903 32.0584 15.9069 31.6627 15.0157 31.4694C14.4783 31.3526 13.9287 31.2826 13.3801 31.2384C13.135 31.2191 12.889 31.2035 12.644 31.197C12.5734 31.1952 12.2625 31.2357 12.2068 31.1943C12.1158 30.4295 12.2133 29.5249 11.8531 28.8264C11.7463 28.6203 11.6071 28.4399 11.4307 28.2881C11.2544 28.1353 11.1625 28.4381 11.1058 28.5964C10.922 29.1108 10.8478 29.6712 10.7754 30.2096C10.741 30.4645 10.7262 30.7157 10.7132 30.9725C10.7076 31.0884 10.702 31.2053 10.6955 31.3213C10.6937 31.3599 9.95755 31.4713 9.86937 31.4906C8.88168 31.7004 7.87543 31.9756 7.05205 32.5802C6.68446 32.8333 6.39576 33.1517 6.48952 33.6192C6.59534 34.1483 7.0372 34.5965 7.39459 34.9802C8.0583 35.6944 8.92438 36.2456 9.75241 36.7527C9.99376 36.8999 10.237 37.0435 10.482 37.1843C10.5377 37.4401 10.5971 37.6941 10.6593 37.9481C10.7132 38.1662 10.8032 38.3769 10.9443 38.5546C11.0297 38.6042 11.2358 38.5794 11.3351 38.5886C11.5106 38.6033 11.6981 38.5739 11.8698 38.5407C12.0202 38.5122 11.9998 38.4349 12.0415 38.295C12.0731 38.1874 12.1065 38.0806 12.1371 37.972C12.1826 37.8128 12.1325 37.7732 12.3237 37.8009C12.5103 37.8275 12.6978 37.8533 12.8844 37.8791C14.1301 38.0475 15.3462 38.1073 16.5901 37.8818C18.6137 37.5156 20.939 36.3864 21.4097 34.2008C21.9119 31.8661 20.1871 29.8249 18.4782 28.4546C16.0953 26.5405 13.2956 25.3036 10.2936 24.7147C8.82506 24.4266 7.20522 24.3475 5.73762 24.6852C5.13238 24.8242 4.37491 25.08 4.0955 25.6874C3.68613 26.5782 4.68959 26.4383 5.27626 26.4383C5.24099 26.4383 5.3236 26.3914 5.27626 26.4383V26.4365ZM10.625 32.617C10.5721 33.7535 10.5182 34.8901 10.4653 36.0257C9.70135 35.8536 8.94295 35.5269 8.32286 35.0483C7.9367 34.7502 6.76057 34.083 6.92024 33.4728C7.05577 32.9538 8.2848 32.8701 8.70717 32.8103C9.3254 32.7228 10.003 32.6004 10.625 32.617Z" fill="white"/>
<path d="M25.5507 26.4015C25.3437 25.7011 24.189 25.6652 23.6171 25.7453C22.8253 25.8557 22.0586 26.2818 21.4784 26.8174C20.966 27.2904 20.4211 28.0248 20.6411 28.7592C20.7293 29.0527 21.0867 29.3316 21.0198 29.6224C20.9586 29.8975 21.0969 30.2601 21.3067 30.4469C21.6575 30.7608 21.8154 30.0236 22.0818 30.1028C22.4345 30.2077 22.8337 30.2472 23.2003 30.2242C23.9578 30.1764 24.7116 29.7319 25.3029 29.2892C25.884 28.8549 26.5505 28.207 26.6136 27.445C26.6545 26.9564 26.1216 26.2266 25.5517 26.3996L25.5507 26.4015ZM22.4587 31.2292C22.1932 31.2292 22.0827 33.9835 22.0502 34.3397C22.0251 34.832 21.9973 35.3244 21.9973 35.8167C21.9973 36.2142 21.9927 36.7094 22.2461 37.0434C22.3714 37.2081 22.7687 37.2385 22.9562 37.2173C23.2356 37.1861 23.3609 36.9744 23.3944 36.7121C23.4807 36.0339 23.3804 35.2811 23.3396 34.601C23.296 33.8768 23.2542 33.1525 23.2282 32.4274C23.2078 31.8513 23.1549 31.2549 22.4587 31.2282C22.4002 31.2282 22.778 31.2402 22.4587 31.2282V31.2292ZM22.5301 29.0537C22.9822 28.427 23.5484 27.815 24.2214 27.4183C24.6874 27.1432 25.8571 26.7189 25.7587 27.6401C25.6779 28.3948 24.7608 28.8079 24.1249 29.0076C24.007 29.0445 22.5311 29.4245 22.5311 29.0546C22.5311 29.0776 22.7084 28.8089 22.5311 29.0546L22.5301 29.0537ZM21.4645 28.4224C21.5081 28.0018 21.7392 27.6098 22.0604 27.3364C22.2275 27.1938 22.4215 27.0861 22.6276 27.0107C22.7594 26.9619 23.1855 26.8588 22.9274 27.0907C22.636 27.353 22.3603 27.6291 22.0883 27.9107C21.9741 28.0285 21.5935 28.5503 21.4635 28.4233C21.4867 28.4463 21.4988 28.0837 21.4635 28.4233L21.4645 28.4224Z" fill="white"/>
<path d="M24.9371 32.6455C25.2908 32.4265 25.8069 32.3924 26.2116 32.3464C26.8141 32.2783 27.4212 32.2387 28.0255 32.1982C28.4794 32.1679 28.9315 32.1384 29.3789 32.0556C29.7818 31.9811 30.2626 31.4593 29.6388 31.3185C28.6372 31.0912 27.6421 30.9789 26.621 31.1234C25.7503 31.2467 24.2827 31.4988 23.9866 32.4946C23.8585 32.9243 23.9401 33.4406 24.3959 33.6182C24.8359 33.7894 25.3539 33.7912 25.8199 33.8105C26.3611 33.8335 26.8856 33.8556 27.4193 33.9587C27.812 34.0342 28.7365 34.1602 28.8684 34.6323C29.0846 35.4072 26.6656 35.6133 26.2098 35.6474C25.8171 35.6768 25.3103 35.6916 24.938 35.5498C24.731 35.4707 24.6271 35.3253 24.6586 35.1026C24.6967 34.8302 24.9594 34.7731 25.2026 34.7731C26.1986 34.7731 27.1186 35.5913 28.07 34.8974C28.446 34.6231 27.4212 34.371 27.2402 34.3204C26.7491 34.1851 26.2191 34.1004 25.7076 34.1253C25.2602 34.1474 24.7468 34.2523 24.4405 34.6038C24.0998 34.994 24.2093 35.4956 24.5259 35.8591C25.146 36.5704 26.2218 36.9072 27.1464 36.8805C28.0357 36.8557 29.1376 36.6174 29.5868 35.7541C30.0073 34.9471 29.7539 33.9283 28.9352 33.505C28.343 33.1986 27.6495 33.1921 26.9979 33.1397C26.6906 33.1148 26.3834 33.0955 26.078 33.0522C25.9183 33.0302 24.7969 32.7798 24.9371 32.6455C25.0318 32.5866 24.913 32.6685 24.9371 32.6455Z" fill="white"/>
<path d="M33.3454 30.7203C33.5803 31.6497 33.9423 32.5553 34.0964 33.5022C34.1772 33.9964 34.2097 34.5164 34.1716 35.0152C34.1512 35.2922 33.9173 34.9498 33.8699 34.8891C33.6703 34.6342 33.4856 34.3682 33.3102 34.0958C32.9945 33.6044 32.691 33.1047 32.3615 32.6215C32.1795 32.3556 31.7442 31.5338 31.3311 31.6415C30.9505 31.7409 30.7732 32.4219 30.672 32.7375C30.4956 33.286 30.3861 33.8565 30.3044 34.4253C30.2014 35.1385 29.9127 36.5465 30.5996 37.0784C31.4759 37.7576 31.5 35.2544 31.5149 34.9176C31.5307 34.5339 31.4592 33.9909 31.6235 33.6329C31.721 33.4203 31.8472 33.7019 31.8973 33.793C32.0245 34.0268 32.1415 34.2651 32.2603 34.5035C32.4877 34.9618 32.7086 35.4265 32.9853 35.859C33.2396 36.2566 33.6471 36.8861 34.2004 36.8069C34.9346 36.702 35.2707 35.7578 35.3821 35.1412C35.5213 34.3673 35.4378 33.5252 35.2131 32.7743C34.9968 32.0501 34.6896 31.3065 34.1772 30.7359C34.0472 30.5914 33.6917 30.181 33.4531 30.2951C33.3241 30.3568 33.3454 30.6043 33.3454 30.7203Z" fill="white"/>
<path d="M40.0096 35.7661C40.0096 34.6765 37.6694 35.5554 37.0762 35.5554C37.2136 35.2664 37.3296 34.9682 37.4225 34.6636C37.5561 34.2283 37.7306 34.3102 38.1641 34.3047C38.5819 34.2992 39.7292 34.4879 39.8044 33.9495C39.862 33.5418 39.7858 33.2878 39.369 33.2878H38.23C37.7956 33.2878 37.9906 32.5755 38.1957 32.374C38.839 32.2424 39.5361 32.4274 40.1785 32.259C40.314 32.224 40.8459 32.1172 40.8459 31.9166C40.8459 31.6304 40.6018 31.4188 40.4254 31.2218C40.0179 30.7672 39.1063 30.9181 38.5522 30.9844C38.1038 31.0378 37.6592 31.1132 37.2145 31.1887C36.923 31.2384 35.8444 31.1804 36.0356 31.681C36.083 31.8044 36.9973 32.4016 37.0205 32.3492C36.8859 32.6538 36.7513 32.9584 36.6167 33.263C36.5759 33.355 36.2426 33.4102 36.1359 33.4452C36.0746 33.6311 35.9864 33.8363 36.1006 34.025C36.2695 34.3047 36.0607 34.6176 35.9567 34.8946C35.8323 35.225 35.7209 35.5471 35.7525 35.9051C35.8982 37.5625 37.6981 37.3471 38.7935 36.7655C39.124 36.5907 40.0105 36.1968 40.0105 35.7652C40.0105 35.6474 40.0105 35.8949 40.0105 35.7652L40.0096 35.7661Z" fill="white"/>
<path d="M40.8812 41.9338C41.2868 40.3325 41.6294 38.7331 42.1789 37.1714C43.7384 36.9211 45.0519 36.4012 45.9644 35.0106C46.6913 33.9045 46.3274 30.3403 44.4272 31.7603C43.3151 32.5894 42.5521 33.7545 41.6108 34.7116C41.1105 34.2155 42.2467 32.7137 42.5437 32.2692C43.6326 30.6375 42.4296 30.7286 41.531 32.1366C41.0297 32.9244 40.5981 33.8493 40.5981 34.799C40.6157 35.2481 40.7225 35.676 40.9183 36.0818C40.586 36.8641 40.3047 37.6638 40.0745 38.481C39.836 39.3285 39.1138 42.4952 40.8803 41.9338H40.8812ZM43.0673 35.6254C43.3987 34.9665 44.3316 32.6014 45.3434 32.6014C45.9449 32.6014 45.3471 34.1612 45.2348 34.3352C44.7818 35.0392 43.8934 35.5306 43.0673 35.6254C43.6837 35.5545 43.1026 35.5545 43.0673 35.6254Z" fill="white"/>
<path style="mix-blend-mode:hard-light" d="M30.6497 15.0436C39.9547 15.0436 47.8627 20.5146 50.6002 28.0635H51.7188C48.9599 19.921 40.5711 14 30.6497 14C24.537 14 19.0073 16.2473 15.0157 19.8768L15.8019 20.5882C19.6023 17.1648 24.8554 15.0436 30.6497 15.0436Z" fill="url(#paint1_linear_251_3674)"/>
<path d="M56 32.5572H52.6304C52.5477 31.4363 52.3639 30.3412 52.0845 29.2792H50.992C51.2899 30.3393 51.4858 31.4354 51.574 32.5572H48.3817V33.7277H51.625C51.625 33.782 51.6278 33.8354 51.6278 33.8897C51.6278 34.9885 51.5211 36.0652 51.3196 37.1134H52.3909C52.5802 36.0643 52.6805 34.9876 52.6805 33.8897C52.6805 33.8354 52.6786 33.782 52.6777 33.7277H55.9991V32.5572H56Z" fill="white"/>
<defs>
<linearGradient id="paint0_linear_251_3674" x1="30" y1="0" x2="30" y2="60" gradientUnits="userSpaceOnUse">
<stop stop-color="#15193A"/>
<stop offset="1" stop-color="#2B69BD"/>
</linearGradient>
<linearGradient id="paint1_linear_251_3674" x1="15.0166" y1="21.0318" x2="51.7197" y2="21.0318" gradientUnits="userSpaceOnUse">
<stop stop-color="#1C366A" stop-opacity="0.1"/>
<stop offset="0.11" stop-color="#2A69BF" stop-opacity="0.6"/>
<stop offset="0.22" stop-color="#3577C1" stop-opacity="0.58"/>
<stop offset="0.36" stop-color="#579FC7" stop-opacity="0.54"/>
<stop offset="0.44" stop-color="#74C2CD" stop-opacity="0.5"/>
<stop offset="0.49" stop-color="#79CAD4" stop-opacity="0.57"/>
<stop offset="0.59" stop-color="#86E1E6" stop-opacity="0.76"/>
<stop offset="0.72" stop-color="#97FEFD"/>
<stop offset="0.96" stop-color="white"/>
</linearGradient>
</defs>
</svg>
