<svg width="1em" height="1em" viewBox="0 0 60 60" fill="none" xmlns="http://www.w3.org/2000/svg">
<circle cx="30" cy="30" r="30" fill="#2C2C34"/>
<path d="M33.3593 11.7335L33.3425 19.8192L33.3257 27.9049L32.5539 26.0279V26.023L31.5527 44.0234C32.5371 46.4106 33.0628 47.686 33.0684 47.6908C33.074 47.6956 33.6333 47.7245 34.3101 47.7534C36.3571 47.84 38.8963 48.0277 40.8258 48.2347C41.2733 48.2828 41.6536 48.3069 41.6815 48.2876C41.7095 48.2684 41.7151 40.0383 41.7095 29.9937L41.6927 11.7335H33.3593Z" fill="url(#paint0_linear_251_3679)"/>
<path d="M18.2843 11.7093V29.9888C18.2843 40.043 18.2955 48.2779 18.3123 48.2924C18.329 48.3068 19.0505 48.2443 19.923 48.1624C20.7955 48.0806 21.998 47.9747 22.5965 47.9314C23.5137 47.864 26.2654 47.7148 26.5786 47.71C26.6737 47.71 26.6793 47.3009 26.6905 39.966L26.7073 32.222L27.3728 33.8392C27.4735 34.0894 27.5071 34.1664 27.6077 34.4119L28.6089 16.4163C28.3964 15.9014 28.5082 16.1709 28.2677 15.5837C27.4511 13.596 26.7576 11.9163 26.7297 11.8392L26.6737 11.7045H18.2843V11.7093Z" fill="url(#paint1_linear_251_3679)"/>
<path d="M18.2843 11.7093L26.7017 32.2363V32.2267L27.3673 33.8438C31.0643 42.8488 33.0498 47.6809 33.061 47.6906C33.0665 47.6954 33.6258 47.7242 34.3026 47.7531C36.3496 47.8398 38.8888 48.0275 40.8184 48.2344C41.2603 48.2825 41.6462 48.3066 41.6685 48.2873L33.3238 27.8999V27.9047L32.552 26.0277C31.7969 24.194 31.2936 22.9667 28.2566 15.5837C27.44 13.596 26.7465 11.9163 26.7185 11.8392L26.6626 11.7045H22.4734L18.2843 11.7093Z" fill="#E30A17"/>
<defs>
<linearGradient id="paint0_linear_251_3679" x1="45.4682" y1="39.0699" x2="32.1301" y2="44.9275" gradientUnits="userSpaceOnUse">
<stop stop-color="#B20610"/>
<stop offset="0.255959" stop-color="#B20610"/>
<stop offset="1" stop-color="#590004"/>
</linearGradient>
<linearGradient id="paint1_linear_251_3679" x1="14.2396" y1="19.7247" x2="28.6643" y2="13.463" gradientUnits="userSpaceOnUse">
<stop stop-color="#B20610"/>
<stop offset="0.255959" stop-color="#B20610"/>
<stop offset="1" stop-color="#590004"/>
</linearGradient>
</defs>
</svg>
