<svg width="1em" height="1em" viewBox="0 0 400 65" fill="none" xmlns="http://www.w3.org/2000/svg">
<g>
<path opacity="0.95" d="M154.595 25.2574C147.881 39.6387 129.385 59.0055 129.385 59.0055H111.25L107.792 39.8232C101.086 50.5148 92.6981 59.0055 92.6981 59.0055H75.7168L74.3482 51.759C72.1258 53.2178 65.4457 57.3666 59.0916 58.9712C58.9286 59.0312 43.7922 64.347 37.7985 53.6597C37.7985 53.6597 23.9106 65.7156 8.29361 57.5382C-1.97754 50.9353 0.0131942 40.0335 0.433651 37.3091L5.96823 3.29501C6.1613 2.11944 7.17812 1.25279 8.36655 1.25279H25.1676C25.1676 1.25279 20.3496 30.7062 19.9291 33.0144C19.5086 35.3183 16.677 43.4958 25.9013 44.4354C34.1817 44.4354 36.0695 40.1407 36.3827 39.4071L42.3334 3.29072C42.5308 2.11515 43.5433 1.25279 44.736 1.25279H61.4342L54.8313 40.9773C54.8313 40.9773 53.0851 46.4991 60.1771 44.8558C60.1771 44.8558 66.1064 43.6974 72.1815 40.6041L72.3832 41.3292L65.6902 5.86494C65.4371 4.53492 66.3166 3.25639 67.6466 3.01613L84.1045 0L90.4971 38.3559C97.2073 31.1266 103.913 17.2902 103.913 17.2902C103.913 17.2902 102.45 9.52463 101.712 5.45735C101.468 4.12734 102.356 2.8531 103.69 2.62142L118.693 0L125.82 40.5612C128.548 37.7467 134.049 29.389 136.009 26.3643C136.456 25.6736 137.224 25.2574 138.047 25.2574H154.595Z" fill="white"/>
<path opacity="0.95" d="M254.792 0.531982C237.137 0.531982 222.829 14.081 222.829 30.7877C222.829 34.9236 223.704 38.8665 225.292 42.4532C222.554 44.1179 220.216 44.6456 220.216 44.6456C220.216 44.6456 214.557 46.7436 214.557 42.1314L221.37 1.1498H204.779C203.591 1.1498 202.574 2.01216 202.381 3.18343L199.15 22.7389H180.075L183.636 1.1498H167.041C165.853 1.1498 164.84 2.01216 164.647 3.18343L155.444 59.0055H174.099L177.767 37.4163H196.426C196.426 37.4163 195.375 45.3792 195.169 47.267C194.959 49.1548 194.328 58.0616 206.277 60.1596C213.721 60.9962 218.959 59.0055 218.959 59.0055C218.959 59.0055 225.373 56.9332 232.092 52.0894C237.884 57.6197 245.916 61.0434 254.792 61.0434C272.447 61.0434 286.76 47.4987 286.76 30.7877C286.76 14.0767 272.447 0.531982 254.792 0.531982ZM254.857 44.9674C247.82 44.9674 242.119 38.6047 242.119 30.7491C242.119 22.8934 247.82 16.5351 254.857 16.5351C261.893 16.5351 267.595 22.8977 267.595 30.7491C267.595 38.6005 261.893 44.9674 254.857 44.9674Z" fill="white"/>
<path opacity="0.95" d="M323.734 0.536255C306.08 0.536255 291.767 14.081 291.767 30.792C291.767 47.503 306.08 61.0477 323.734 61.0477C341.389 61.0477 355.702 47.503 355.702 30.792C355.702 14.081 341.389 0.536255 323.734 0.536255ZM323.799 44.9716C316.763 44.9716 311.061 38.6047 311.061 30.7533C311.061 22.902 316.763 16.5351 323.799 16.5351C330.835 16.5351 336.537 22.902 336.537 30.7533C336.537 38.6047 330.835 44.9716 323.799 44.9716Z" fill="white"/>
<path opacity="0.95" d="M367.041 34.3401L378.642 2.46263C379.132 1.11546 380.672 0.484771 381.968 1.09829L398.606 8.96684C399.893 9.57607 400.386 11.1592 399.665 12.3906L382.633 41.6423C381.998 42.7278 380.642 43.1525 379.501 42.6205L368.298 37.3777C367.157 36.8457 366.612 35.5285 367.046 34.3444L367.041 34.3401Z" fill="white"/>
<path d="M367.209 64.0166C372.959 64.0166 377.621 59.3547 377.621 53.6039C377.621 47.8531 372.959 43.1912 367.209 43.1912C361.458 43.1912 356.796 47.8531 356.796 53.6039C356.796 59.3547 361.458 64.0166 367.209 64.0166Z" fill="#FBAD0E"/>
<path d="M146.499 20.8255C152.25 20.8255 156.912 16.1635 156.912 10.4127C156.912 4.66194 152.25 0 146.499 0C140.748 0 136.086 4.66194 136.086 10.4127C136.086 16.1635 140.748 20.8255 146.499 20.8255Z" fill="#6D6ADA"/>
</g>
</svg>
