<svg width="1em" height="1em" viewBox="0 0 60 60" fill="none" xmlns="http://www.w3.org/2000/svg">
<circle cx="30" cy="30" r="30" fill="#0050FF"/>
<path d="M20.9569 45C12.5168 34.5903 12.4279 21.3293 13.4385 16H22.594C21.1388 24.169 22.8365 30.9182 23.8673 33.2716C23.5277 27.7634 26.5553 21.3293 28.1116 18.8008H35.63C34.6114 25.1493 36.2566 31.0932 37.2065 33.2716C37.4005 28.0435 39.6318 23.2743 40.7232 21.5433H50C44.058 29.5372 43.5123 38.9705 43.8155 42.8994H34.5993C31.98 39.5851 30.6379 34.8276 30.2944 32.8632C29.0332 36.7376 29.6476 42.5687 30.1125 45H20.9569Z" fill="white"/>
</svg>
